<svg width="56" height="56" viewBox="0 0 56 56" fill="none" xmlns="http://www.w3.org/2000/svg">
<path d="M16.7997 8.40039C15.3145 8.40039 13.8901 8.99039 12.8399 10.0406C11.7897 11.0908 11.1997 12.5152 11.1997 14.0004V25.9172C12.0901 25.6036 13.0281 25.3852 13.9997 25.276V14.0004C13.9997 13.2578 14.2947 12.5456 14.8198 12.0205C15.3449 11.4954 16.0571 11.2004 16.7997 11.2004H36.3997C37.1423 11.2004 37.8545 11.4954 38.3796 12.0205C38.9047 12.5456 39.1997 13.2578 39.1997 14.0004V44.8004H28.3385L31.1385 47.6004H41.9997C44.2276 47.6004 46.3641 46.7154 47.9394 45.1401C49.5147 43.5648 50.3997 41.4282 50.3997 39.2004V33.6004H41.9997V14.0004C41.9997 12.5152 41.4097 11.0908 40.3595 10.0406C39.3093 8.99039 37.8849 8.40039 36.3997 8.40039H16.7997ZM23.3209 28.0004H32.1997C32.571 28.0004 32.9271 27.8529 33.1897 27.5903C33.4522 27.3278 33.5997 26.9717 33.5997 26.6004C33.5997 26.2291 33.4522 25.873 33.1897 25.6104C32.9271 25.3479 32.571 25.2004 32.1997 25.2004H20.9997C20.7402 25.2001 20.4858 25.272 20.2648 25.408C20.0438 25.5439 19.8649 25.7387 19.7481 25.9704C21.0529 26.452 22.2597 27.1408 23.3209 28.0004ZM41.9997 44.8004V36.4004H47.5997V39.2004C47.5997 40.6856 47.0097 42.11 45.9595 43.1602C44.9093 44.2104 43.4849 44.8004 41.9997 44.8004ZM20.9997 16.8004C20.6284 16.8004 20.2723 16.9479 20.0098 17.2104C19.7472 17.473 19.5997 17.8291 19.5997 18.2004C19.5997 18.5717 19.7472 18.9278 20.0098 19.1903C20.2723 19.4529 20.6284 19.6004 20.9997 19.6004H32.1997C32.571 19.6004 32.9271 19.4529 33.1897 19.1903C33.4522 18.9278 33.5997 18.5717 33.5997 18.2004C33.5997 17.8291 33.4522 17.473 33.1897 17.2104C32.9271 16.9479 32.571 16.8004 32.1997 16.8004H20.9997ZM15.3997 47.6004C17.6005 47.6004 19.6333 46.8724 21.2685 45.6488L28.4085 52.7888C28.5385 52.919 28.6929 53.0222 28.8628 53.0928C29.0327 53.1633 29.2148 53.1996 29.3987 53.1998C29.5827 53.1999 29.7649 53.1638 29.9349 53.0935C30.1049 53.0232 30.2594 52.9202 30.3895 52.7902C30.5197 52.6602 30.623 52.5059 30.6935 52.336C30.764 52.1661 30.8004 51.9839 30.8005 51.8C30.8006 51.616 30.7645 51.4338 30.6943 51.2638C30.624 51.0938 30.5209 50.9394 30.3909 50.8092L23.2509 43.6692C24.5726 41.9018 25.2589 39.74 25.1989 37.5339C25.1389 35.3278 24.336 33.2065 22.9202 31.5136C21.5045 29.8206 19.5587 28.6551 17.398 28.2057C15.2373 27.7563 12.9882 28.0494 11.0149 29.0375C9.04149 30.0256 7.4594 31.6508 6.52477 33.6501C5.59014 35.6493 5.35768 37.9055 5.86503 40.0533C6.37238 42.2011 7.58984 44.1148 9.32027 45.4845C11.0507 46.8542 13.1928 47.5998 15.3997 47.6004ZM15.3997 44.8004C13.5432 44.8004 11.7627 44.0629 10.45 42.7501C9.13723 41.4374 8.39974 39.6569 8.39974 37.8004C8.39974 35.9439 9.13723 34.1634 10.45 32.8506C11.7627 31.5379 13.5432 30.8004 15.3997 30.8004C17.2563 30.8004 19.0367 31.5379 20.3495 32.8506C21.6622 34.1634 22.3997 35.9439 22.3997 37.8004C22.3997 39.6569 21.6622 41.4374 20.3495 42.7501C19.0367 44.0629 17.2563 44.8004 15.3997 44.8004Z" fill="#D9D9D9"/>
</svg>
