<svg width="20" height="20" viewBox="0 0 20 20" fill="none" xmlns="http://www.w3.org/2000/svg">
<path d="M18.1143 14.455C17.5698 16.638 17.2975 17.729 16.4866 18.365C15.6747 19 14.5526 19 12.3085 19H7.69052C5.44637 19 4.3243 19 3.51142 18.365C2.70053 17.729 2.42824 16.638 1.88466 14.455C1.02889 11.023 0.601004 9.308 1.49866 8.154C2.39732 7 4.16272 7 7.68952 7H12.3095C15.8383 7 17.6017 7 18.5003 8.154C19.028 8.831 19.0988 9.702 18.8933 11" stroke="#279600" stroke-width="1.5" stroke-linecap="round"/>
<path d="M2.51948 7.5L3.22763 4.895C3.50092 3.89 3.63756 3.388 3.91783 3.009C4.19728 2.63246 4.5768 2.3424 5.01297 2.172C5.45183 2 5.97048 2 7.00777 2M17.4805 7.5L16.7723 4.895C16.499 3.89 16.3624 3.388 16.0821 3.009C15.8027 2.63246 15.4231 2.3424 14.987 2.172C14.5481 2 14.0295 2 12.9922 2" stroke="#279600" stroke-width="1.5"/>
<path d="M12.9922 2C12.9922 1.73478 12.8871 1.48043 12.7001 1.29289C12.513 1.10536 12.2593 1 11.9948 1H8.00519C7.74066 1 7.48697 1.10536 7.29992 1.29289C7.11287 1.48043 7.00779 1.73478 7.00779 2C7.00779 2.26522 7.11287 2.51957 7.29992 2.70711C7.48697 2.89464 7.74066 3 8.00519 3H11.9948C12.2593 3 12.513 2.89464 12.7001 2.70711C12.8871 2.51957 12.9922 2.26522 12.9922 2Z" stroke="#279600" stroke-width="1.5"/>
</svg>
