<svg width="36" height="36" viewBox="0 0 36 36" fill="none" xmlns="http://www.w3.org/2000/svg">
<circle cx="18" cy="18" r="17.5" stroke="#279600"/>
<path d="M26.1143 22.455C25.5698 24.638 25.2975 25.729 24.4866 26.365C23.6747 27 22.5526 27 20.3085 27H15.6905C13.4464 27 12.3243 27 11.5114 26.365C10.7005 25.729 10.4282 24.638 9.88466 22.455C9.02889 19.023 8.601 17.308 9.49866 16.154C10.3973 15 12.1627 15 15.6895 15H20.3095C23.8383 15 25.6017 15 26.5003 16.154C27.028 16.831 27.0988 17.702 26.8933 19" stroke="#279600" stroke-width="1.5" stroke-linecap="round"/>
<path d="M10.5195 15.5L11.2276 12.895C11.5009 11.89 11.6376 11.388 11.9178 11.009C12.1973 10.6325 12.5768 10.3424 13.013 10.172C13.4518 10 13.9705 10 15.0078 10M25.4805 15.5L24.7723 12.895C24.499 11.89 24.3624 11.388 24.0821 11.009C23.8027 10.6325 23.4231 10.3424 22.987 10.172C22.5481 10 22.0295 10 20.9922 10" stroke="#279600" stroke-width="1.5"/>
<path d="M20.9922 10C20.9922 9.73478 20.8871 9.48043 20.7001 9.29289C20.513 9.10536 20.2593 9 19.9948 9H16.0052C15.7407 9 15.487 9.10536 15.2999 9.29289C15.1129 9.48043 15.0078 9.73478 15.0078 10C15.0078 10.2652 15.1129 10.5196 15.2999 10.7071C15.487 10.8946 15.7407 11 16.0052 11H19.9948C20.2593 11 20.513 10.8946 20.7001 10.7071C20.8871 10.5196 20.9922 10.2652 20.9922 10Z" stroke="#279600" stroke-width="1.5"/>
<path d="M22.298 22.076H25.498V20.54H22.298V17.116H20.346V20.54H17.13V22.076H20.346V25.5H22.298V22.076Z" fill="#279600"/>
</svg>
