<svg width="24" height="24" viewBox="0 0 24 24" fill="none" xmlns="http://www.w3.org/2000/svg">
<path d="M10 13.5H13.48V12.5H10V13.5ZM10 10.5H16.962V9.5H10V10.5ZM10 7.5H16.962V6.5H10V7.5ZM8.115 17C7.655 17 7.271 16.846 6.963 16.538C6.65433 16.2293 6.5 15.845 6.5 15.385V4.615C6.5 4.155 6.65433 3.771 6.963 3.463C7.271 3.15433 7.65467 3 8.114 3H18.884C19.344 3 19.728 3.15433 20.036 3.463C20.3447 3.771 20.499 4.155 20.499 4.615V15.385C20.499 15.845 20.345 16.2293 20.037 16.538C19.7283 16.846 19.344 17 18.884 17H8.115ZM8.115 16H18.885C19.0383 16 19.1793 15.936 19.308 15.808C19.436 15.6793 19.5 15.5383 19.5 15.385V4.615C19.5 4.46167 19.436 4.32067 19.308 4.192C19.1793 4.064 19.0383 4 18.885 4H8.115C7.96167 4 7.82067 4.064 7.692 4.192C7.564 4.32067 7.5 4.46167 7.5 4.615V15.385C7.5 15.5383 7.564 15.6793 7.692 15.808C7.82067 15.936 7.96167 16 8.115 16ZM5.115 20C4.655 20 4.271 19.846 3.963 19.538C3.65433 19.2293 3.5 18.845 3.5 18.385V6.615H4.5V18.385C4.5 18.5383 4.564 18.6793 4.692 18.808C4.82067 18.936 4.96167 19 5.115 19H16.885V20H5.115Z" fill="#1A1C1A"/>
</svg>
