<svg width="120" height="120" viewBox="0 0 120 120" fill="none" xmlns="http://www.w3.org/2000/svg">
<circle cx="60" cy="60" r="60" fill="#E7E7E7"/>
<path d="M79.001 54C79.001 53.2043 78.6848 52.4413 78.1223 51.8787C77.5598 51.3161 76.7966 51 76.001 51H70.001L65.501 45H53.501L49.001 51H43.001C42.2053 51 41.4423 51.3161 40.8797 51.8787C40.317 52.4413 40.001 53.2043 40.001 54V72C40.001 72.7956 40.317 73.5588 40.8797 74.1213C41.4423 74.6838 42.2053 75 43.001 75H76.001C76.7966 75 77.5598 74.6838 78.1223 74.1213C78.6848 73.5588 79.001 72.7956 79.001 72V54Z" stroke="#9C9C9C" stroke-width="1.71429" stroke-linecap="round" stroke-linejoin="round"/>
<path d="M59.501 68.25C63.2289 68.25 66.251 65.2279 66.251 61.5C66.251 57.7721 63.2289 54.75 59.501 54.75C55.7731 54.75 52.751 57.7721 52.751 61.5C52.751 65.2279 55.7731 68.25 59.501 68.25Z" stroke="#9C9C9C" stroke-width="1.71429" stroke-linecap="round" stroke-linejoin="round"/>
</svg>
