<svg width="26" height="26" viewBox="0 0 26 26" fill="none" xmlns="http://www.w3.org/2000/svg">
<path d="M2.17934 18.94C1.03822 14.364 0.467662 12.0773 1.66597 10.5387C2.86294 9 5.217 9 9.92111 9H16.0789C20.7843 9 23.1357 9 24.334 10.5387C25.5323 12.076 24.9618 14.3653 23.8207 18.94C23.0945 21.8507 22.7327 23.3053 21.6501 24.1533C20.5675 25 19.0713 25 16.0789 25H9.92111C6.92867 25 5.43245 25 4.34985 24.1533C3.26726 23.3053 2.90417 21.8507 2.17934 18.94Z" stroke="#818181" stroke-width="1.5"/>
<path d="M22.9747 9.66671L22.0305 6.19337C21.6661 4.85337 21.4838 4.18404 21.1101 3.67871C20.7375 3.17666 20.2314 2.78991 19.6498 2.56271C19.0646 2.33337 18.373 2.33337 16.9899 2.33337M3.02515 9.66671L3.96943 6.19337C4.33384 4.85337 4.51605 4.18404 4.88977 3.67871C5.2624 3.17666 5.76847 2.78991 6.35008 2.56271C6.93527 2.33337 7.62685 2.33337 9.01003 2.33337" stroke="#818181" stroke-width="1.5"/>
<path d="M9.01001 2.33333C9.01001 1.97971 9.15013 1.64057 9.39955 1.39052C9.64897 1.14048 9.98725 1 10.34 1H15.6599C16.0126 1 16.3509 1.14048 16.6003 1.39052C16.8497 1.64057 16.9898 1.97971 16.9898 2.33333C16.9898 2.68696 16.8497 3.02609 16.6003 3.27614C16.3509 3.52619 16.0126 3.66667 15.6599 3.66667H10.34C9.98725 3.66667 9.64897 3.52619 9.39955 3.27614C9.15013 3.02609 9.01001 2.68696 9.01001 2.33333Z" stroke="#818181" stroke-width="1.5"/>
</svg>
