<svg width="24" height="22" viewBox="0 0 24 22" fill="none" xmlns="http://www.w3.org/2000/svg">
<path d="M13.6328 8.62305C13.0141 8.62305 12.5347 9.09356 12.5347 9.67446C12.5347 10.2554 13.0141 10.7259 13.6328 10.7259C14.198 10.7259 14.6774 10.2554 14.6774 9.67446C14.6774 9.09356 14.198 8.62305 13.6328 8.62305ZM6.1333 8.62305C5.51459 8.62305 5.03516 9.09356 5.03516 9.67446C5.03516 10.2554 5.51459 10.7259 6.1333 10.7259C6.69845 10.7259 7.17788 10.2554 7.17788 9.67446C7.17788 9.09356 6.69845 8.62305 6.1333 8.62305Z" fill="#9C9C9C"/>
<path d="M22.2304 6.62511C20.9421 4.89027 19.1422 3.73108 17.1682 3.208V3.21063C16.7102 2.71121 16.1933 2.25121 15.6148 1.84116C11.2302 -1.28681 5.07522 -0.332649 1.87453 3.97028C-0.704779 7.46624 -0.594964 12.1687 2.03523 15.5096L2.05666 18.995C2.05666 19.0792 2.07005 19.1633 2.09684 19.2421C2.23879 19.6863 2.7209 19.9308 3.17088 19.7915L6.56174 18.7427C7.45901 19.0555 8.38574 19.2342 9.30711 19.2842L9.29372 19.2947C11.6802 21.0006 14.8086 21.5132 17.6771 20.5827L21.0814 21.6709C21.1671 21.6972 21.2555 21.713 21.3465 21.713C21.8206 21.713 22.2036 21.3371 22.2036 20.8718V17.3496C24.5633 14.2058 24.6249 9.86085 22.2304 6.62511ZM6.93672 16.8764L6.61531 16.745L3.96369 17.5599L3.9369 14.8262L3.72263 14.5896C1.4567 11.8769 1.30671 7.9683 3.428 5.10055C6.00999 1.62562 10.9597 0.858082 14.4898 3.36571C18.0307 5.89174 18.8155 10.7414 16.2576 14.1953C14.1122 17.0841 10.2713 18.1513 6.93672 16.8764ZM20.4627 16.4296L20.2484 16.6924L20.2752 19.4261L17.6503 18.5587L17.3289 18.6901C15.829 19.2369 14.23 19.2816 12.7489 18.8741L12.7435 18.8715C14.7228 18.2748 16.5174 17.0657 17.8111 15.3256C19.8574 12.5577 20.1895 9.08017 19.0003 6.11517L19.0163 6.12569C19.6324 6.55939 20.1975 7.10088 20.6769 7.75538C22.6215 10.3734 22.5117 13.9377 20.4627 16.4296Z" fill="#9C9C9C"/>
<path d="M9.8833 8.62305C9.26459 8.62305 8.78516 9.09356 8.78516 9.67446C8.78516 10.2554 9.26459 10.7259 9.8833 10.7259C10.4484 10.7259 10.9279 10.2554 10.9279 9.67446C10.9279 9.09356 10.4484 8.62305 9.8833 8.62305Z" fill="#9C9C9C"/>
</svg>
