<svg width="24" height="18" viewBox="0 0 24 18" fill="none" xmlns="http://www.w3.org/2000/svg">
<path d="M23.931 8.6355C23.896 8.54663 23.049 6.43275 21.166 4.31437C18.657 1.49175 15.488 0 12 0C8.512 0 5.34299 1.49175 2.83399 4.31437C0.950991 6.43275 0.0999905 8.55 0.0689905 8.6355C0.0235036 8.7506 0 8.87516 0 9.00112C0 9.12709 0.0235036 9.25165 0.0689905 9.36675C0.103991 9.45562 0.950991 11.5684 2.83399 13.6868C5.34299 16.5082 8.512 18 12 18C15.488 18 18.657 16.5082 21.166 13.6868C23.049 11.5684 23.896 9.45562 23.931 9.36675C23.9765 9.25165 24 9.12709 24 9.00112C24 8.87516 23.9765 8.7506 23.931 8.6355ZM12 16.2C8.922 16.2 6.233 14.9411 4.00699 12.4594C3.09364 11.4375 2.31658 10.2723 1.69999 9C2.31641 7.72756 3.09349 6.56232 4.00699 5.54062C6.233 3.05888 8.922 1.8 12 1.8C15.078 1.8 17.767 3.05888 19.993 5.54062C20.9081 6.56208 21.6869 7.72731 22.305 9C21.584 10.5142 18.443 16.2 12 16.2ZM12 3.6C11.0506 3.6 10.1226 3.9167 9.33326 4.51006C8.5439 5.10342 7.92868 5.94679 7.56537 6.93351C7.20207 7.92023 7.10702 9.00599 7.29223 10.0535C7.47744 11.101 7.93459 12.0632 8.60588 12.8184C9.27718 13.5736 10.1325 14.0879 11.0636 14.2962C11.9947 14.5046 12.9598 14.3977 13.8369 13.9889C14.714 13.5802 15.4636 12.8881 15.9911 12.0001C16.5185 11.1121 16.8 10.068 16.8 9C16.7987 7.56829 16.2925 6.19564 15.3927 5.18327C14.4928 4.17089 13.2726 3.60149 12 3.6ZM12 12.6C11.3671 12.6 10.7484 12.3889 10.2222 11.9933C9.69594 11.5977 9.28578 11.0355 9.04358 10.3777C8.80138 9.71985 8.73801 8.99601 8.86148 8.29768C8.98496 7.59934 9.28973 6.95788 9.73726 6.45442C10.1848 5.95095 10.755 5.60808 11.3757 5.46917C11.9965 5.33027 12.6399 5.40156 13.2246 5.67403C13.8093 5.94651 14.3091 6.40793 14.6607 6.99995C15.0123 7.59196 15.2 8.28799 15.2 9C15.2 9.95478 14.8629 10.8705 14.2627 11.5456C13.6626 12.2207 12.8487 12.6 12 12.6Z" fill="#9C9C9C"/>
</svg>
