<svg width="24" height="25" viewBox="0 0 24 25" fill="none" xmlns="http://www.w3.org/2000/svg">
<path fill-rule="evenodd" clip-rule="evenodd" d="M2.4 12.1C2.40017 10.2371 2.93342 8.41391 3.93575 6.84906C4.93808 5.28422 6.36691 4.04424 8.05081 3.27791C9.7347 2.51158 11.6021 2.25145 13.429 2.52875C15.2559 2.80604 16.9646 3.60897 18.3501 4.8412C19.7357 6.07343 20.7392 7.6826 21.2402 9.47564C21.7412 11.2687 21.7185 13.1694 21.1748 14.9498C20.6311 16.7301 19.5895 18.3145 18.1749 19.5127C16.7604 20.7109 15.033 21.4721 13.2 21.705V14.52H15.6C15.9183 14.52 16.2235 14.3925 16.4485 14.1656C16.6736 13.9387 16.8 13.6309 16.8 13.31C16.8 12.9891 16.6736 12.6813 16.4485 12.4544C16.2235 12.2275 15.9183 12.1 15.6 12.1H13.2V9.68C13.2 9.35909 13.3264 9.05132 13.5515 8.8244C13.7765 8.59748 14.0817 8.47 14.4 8.47H15C15.3183 8.47 15.6235 8.34252 15.8485 8.1156C16.0736 7.88868 16.2 7.58091 16.2 7.26C16.2 6.93909 16.0736 6.63132 15.8485 6.4044C15.6235 6.17748 15.3183 6.05 15 6.05H14.4C13.4452 6.05 12.5295 6.43245 11.8544 7.1132C11.1793 7.79396 10.8 8.71726 10.8 9.68V12.1H8.4C8.08174 12.1 7.77652 12.2275 7.55147 12.4544C7.32643 12.6813 7.2 12.9891 7.2 13.31C7.2 13.6309 7.32643 13.9387 7.55147 14.1656C7.77652 14.3925 8.08174 14.52 8.4 14.52H10.8V21.705C8.48004 21.41 6.34658 20.2715 4.8 18.503C3.25342 16.7346 2.40004 14.4578 2.4 12.1ZM12 24.2C18.6276 24.2 24 18.7828 24 12.1C24 5.41717 18.6276 0 12 0C5.3724 0 0 5.41717 0 12.1C0 18.7828 5.3724 24.2 12 24.2Z" fill="#313531"/>
</svg>
