<svg width="18" height="19" viewBox="0 0 18 19" fill="none" xmlns="http://www.w3.org/2000/svg">
<path d="M17 2.6C17 2.04 17 1.76 16.89 1.546C16.7945 1.35792 16.6419 1.20493 16.454 1.109C16.24 1 15.96 1 15.4 1H2.6C2.04 1 1.76 1 1.546 1.109C1.35785 1.20487 1.20487 1.35785 1.109 1.546C1 1.76 1 2.04 1 2.6V3.337C1 3.582 1 3.704 1.028 3.819C1.05249 3.92138 1.09299 4.01925 1.148 4.109C1.209 4.209 1.296 4.296 1.468 4.469L6.531 9.531C6.704 9.704 6.791 9.791 6.852 9.891C6.907 9.981 6.948 10.079 6.972 10.181C7 10.295 7 10.416 7 10.655V15.411C7 16.268 7 16.697 7.18 16.955C7.25809 17.0666 7.35816 17.161 7.47406 17.2326C7.58996 17.3041 7.71925 17.3512 7.854 17.371C8.165 17.417 8.549 17.226 9.315 16.842L10.115 16.442C10.437 16.282 10.597 16.202 10.714 16.082C10.8178 15.976 10.8967 15.8483 10.945 15.708C11 15.55 11 15.37 11 15.011V10.663C11 10.418 11 10.296 11.028 10.181C11.0525 10.0786 11.093 9.98073 11.148 9.891C11.208 9.791 11.295 9.705 11.465 9.535L11.469 9.531L16.532 4.469C16.704 4.296 16.79 4.209 16.852 4.109C16.9071 4.0193 16.9476 3.92141 16.972 3.819C17 3.706 17 3.584 17 3.345V2.6Z" stroke="#9C9C9C" stroke-width="2" stroke-linecap="round" stroke-linejoin="round"/>
</svg>
