<svg width="37" height="21" viewBox="0 0 37 21" fill="none" xmlns="http://www.w3.org/2000/svg">
<path d="M6.64286 1C8.85536 1 10.7925 1.92522 12 3.48913C13.2075 1.92522 15.1446 1 17.3571 1C19.1183 1.00193 20.8068 1.68314 22.0522 2.89418C23.2975 4.10522 23.998 5.74719 24 7.45986C24 14.7532 12.8796 20.6567 12.4061 20.9005C12.2813 20.9658 12.1417 21 12 21C11.8583 21 11.7187 20.9658 11.5939 20.9005C11.1204 20.6567 0 14.7532 0 7.45986C0.00198508 5.74719 0.702493 4.10522 1.94784 2.89418C3.19319 1.68314 4.88167 1.00193 6.64286 1ZM12 19.2126C13.9564 18.104 22.2857 13.0539 22.2857 7.45986C22.284 6.18924 21.7642 4.97113 20.8403 4.07266C19.9164 3.1742 18.6638 2.66871 17.3571 2.66706C15.2732 2.66706 13.5236 3.74648 12.7929 5.48022C12.7283 5.6331 12.6184 5.76386 12.4773 5.85588C12.3361 5.94791 12.17 5.99704 12 5.99704C11.83 5.99704 11.6639 5.94791 11.5228 5.85588C11.3816 5.76386 11.2717 5.6331 11.2071 5.48022C10.4764 3.74336 8.72679 2.66706 6.64286 2.66706C5.33624 2.66871 4.08363 3.1742 3.15971 4.07266C2.23579 4.97113 1.71599 6.18924 1.71429 7.45986C1.71429 13.0455 10.0457 18.103 12 19.2126Z" fill="#279600"/>
<path d="M3.5 3.5C5.5 1.1 10 1.99999 12 5L15.5 1.99999L20 2.49999L22.5 5.49999V10.5L14.5 19L11.5 19.5C-1.5 11 1 6.5 3.5 3.5Z" fill="#279600"/>
<path d="M29.024 15.736C29.792 15.1813 30.5547 14.52 31.312 13.752C32.08 12.9733 32.7307 12.1467 33.264 11.272C33.7973 10.3973 34.064 9.57067 34.064 8.792C34.064 8.19467 33.8933 7.72533 33.552 7.384C33.2107 7.032 32.7467 6.856 32.16 6.856C31.6267 6.856 31.12 6.984 30.64 7.24C30.1707 7.496 29.7973 7.83733 29.52 8.264L28.736 7.384C29.0667 6.84 29.536 6.41333 30.144 6.104C30.7627 5.79467 31.44 5.64 32.176 5.64C33.2213 5.64 34.048 5.92267 34.656 6.488C35.264 7.04267 35.568 7.79467 35.568 8.744C35.568 9.87467 35.12 11.0533 34.224 12.28C33.3387 13.5067 32.2507 14.6907 30.96 15.832H36.064V17H29.024V15.736Z" fill="#9C9C9C"/>
</svg>
