<svg width="24" height="20" viewBox="0 0 24 20" fill="none" xmlns="http://www.w3.org/2000/svg">
<path d="M6.64286 0C8.85536 0 10.7925 0.925218 12 2.48913C13.2075 0.925218 15.1446 0 17.3571 0C19.1183 0.00193039 20.8068 0.683141 22.0522 1.89418C23.2975 3.10522 23.998 4.74719 24 6.45986C24 13.7532 12.8796 19.6567 12.4061 19.9005C12.2813 19.9658 12.1417 20 12 20C11.8583 20 11.7187 19.9658 11.5939 19.9005C11.1204 19.6567 0 13.7532 0 6.45986C0.00198508 4.74719 0.702493 3.10522 1.94784 1.89418C3.19319 0.683141 4.88167 0.00193039 6.64286 0ZM12 18.2126C13.9564 17.104 22.2857 12.0539 22.2857 6.45986C22.284 5.18924 21.7642 3.97113 20.8403 3.07266C19.9164 2.1742 18.6638 1.66871 17.3571 1.66706C15.2732 1.66706 13.5236 2.74648 12.7929 4.48022C12.7283 4.6331 12.6184 4.76386 12.4773 4.85588C12.3361 4.94791 12.17 4.99704 12 4.99704C11.83 4.99704 11.6639 4.94791 11.5228 4.85588C11.3816 4.76386 11.2717 4.6331 11.2071 4.48022C10.4764 2.74336 8.72679 1.66706 6.64286 1.66706C5.33624 1.66871 4.08363 2.1742 3.15971 3.07266C2.23579 3.97113 1.71599 5.18924 1.71429 6.45986C1.71429 12.0455 10.0457 17.103 12 18.2126Z" fill="#279600"/>
<path d="M3.5 2.5C5.5 0.0999999 10 0.999993 12 4L15.5 0.999993L20 1.49999L22.5 4.49999V9.49999L14.5 18L11.5 18.5C-1.5 9.99999 1 5.5 3.5 2.5Z" fill="#279600"/>
</svg>
