<svg width="24" height="24" viewBox="0 0 24 24" fill="none" xmlns="http://www.w3.org/2000/svg">
<path d="M13.0905 8.78534C13.0905 9.03921 12.9756 9.28268 12.771 9.46219C12.5664 9.64171 12.2889 9.74256 11.9996 9.74256C11.7103 9.74256 11.4328 9.64171 11.2282 9.46219C11.0236 9.28268 10.9087 9.03921 10.9087 8.78534C10.9087 8.53147 11.0236 8.288 11.2282 8.10849C11.4328 7.92897 11.7103 7.82812 11.9996 7.82812C12.2889 7.82812 12.5664 7.92897 12.771 8.10849C12.9756 8.288 13.0905 8.53147 13.0905 8.78534Z" stroke="#9C9C9C" stroke-width="2" stroke-linejoin="round"/>
<path d="M18 9.26469C18 12.1727 15.8182 15.4866 12 19.3155C8.18182 15.4866 6 12.1727 6 9.26469C6 7.86841 6.63214 6.52931 7.75736 5.54199C8.88258 4.55467 10.4087 4 12 4C13.5913 4 15.1174 4.55467 16.2426 5.54199C17.3679 6.52931 18 7.86841 18 9.26469Z" stroke="#9C9C9C" stroke-width="2" stroke-linejoin="round"/>
</svg>
