<svg width="20" height="27" viewBox="0 0 20 27" fill="none" xmlns="http://www.w3.org/2000/svg">
<path d="M9.91736 6.04922C10.8567 6.04922 11.7576 6.39163 12.4219 7.00112C13.0861 7.61061 13.4593 8.43726 13.4593 9.29922C13.4593 9.72601 13.3677 10.1486 13.1897 10.5429C13.0117 10.9372 12.7508 11.2955 12.4219 11.5973C12.093 11.8991 11.7025 12.1385 11.2728 12.3018C10.8431 12.4652 10.3825 12.5492 9.91736 12.5492C8.97798 12.5492 8.07708 12.2068 7.41285 11.5973C6.74861 10.9878 6.37544 10.1612 6.37544 9.29922C6.37544 8.43726 6.74861 7.61061 7.41285 7.00112C8.07708 6.39163 8.97798 6.04922 9.91736 6.04922ZM9.91736 0.199219C12.5476 0.199219 15.0701 1.15797 16.93 2.86455C18.7899 4.57113 19.8347 6.88575 19.8347 9.29922C19.8347 16.1242 9.91736 26.1992 9.91736 26.1992C9.91736 26.1992 0 16.1242 0 9.29922C0 6.88575 1.04486 4.57113 2.90473 2.86455C4.76459 1.15797 7.28711 0.199219 9.91736 0.199219ZM9.91736 2.79922C8.03861 2.79922 6.23681 3.48404 4.90833 4.70302C3.57986 5.92201 2.83353 7.57531 2.83353 9.29922C2.83353 10.5992 2.83353 13.1992 9.91736 21.9222C17.0012 13.1992 17.0012 10.5992 17.0012 9.29922C17.0012 7.57531 16.2549 5.92201 14.9264 4.70302C13.5979 3.48404 11.7961 2.79922 9.91736 2.79922Z" fill="#313531"/>
</svg>
