<svg width="18" height="18" viewBox="0 0 18 18" fill="none" xmlns="http://www.w3.org/2000/svg">
<path d="M15.3363 7.11128L16.0783 6.37128C16.3704 6.07916 16.6022 5.73234 16.7604 5.35063C16.9185 4.96893 17 4.55981 17 4.14663C17 3.73346 16.9187 3.32432 16.7606 2.94258C16.6026 2.56083 16.3709 2.21397 16.0788 1.92177C15.7866 1.62958 15.4398 1.39779 15.0581 1.23963C14.6764 1.08147 14.2673 1.00005 13.8542 1C13.441 0.999954 13.0319 1.08129 12.6502 1.23936C12.2684 1.39743 11.9216 1.62915 11.6294 1.92127L10.8874 2.66328C10.8874 2.66328 10.9804 4.23928 12.3704 5.62928C13.7603 7.01928 15.3363 7.11229 15.3363 7.11229L8.51948 13.9293C8.05749 14.3913 7.82749 14.6213 7.5725 14.8203C7.27251 15.0543 6.94752 15.2553 6.60353 15.4193C6.31254 15.5583 6.00255 15.6613 5.38357 15.8673L2.75764 16.7433M10.8874 2.66228L4.07061 9.48029C3.60862 9.94229 3.37762 10.1723 3.17963 10.4273C2.94535 10.7276 2.7445 11.0525 2.58065 11.3963C2.44165 11.6873 2.33866 11.9973 2.13166 12.6163L1.25669 15.2423M1.25669 15.2423L1.04369 15.8833C0.993765 16.0328 0.986467 16.1932 1.02262 16.3466C1.05877 16.4999 1.13694 16.6402 1.24837 16.7516C1.35979 16.8631 1.50005 16.9412 1.65342 16.9774C1.8068 17.0135 1.96721 17.0062 2.11666 16.9563L2.75764 16.7433M1.25669 15.2423L2.75764 16.7433" stroke="#9C9C9C" stroke-width="1.5"/>
</svg>
