<svg width="24" height="24" viewBox="0 0 24 24" fill="none" xmlns="http://www.w3.org/2000/svg">
<path d="M13.8938 1.94962C13.9887 1.59498 14.2206 1.29256 14.5384 1.10886C14.8563 0.925155 15.2341 0.875204 15.5888 0.969989C17.3789 1.43634 19.0122 2.37177 20.3203 3.67982C21.6283 4.98786 22.5638 6.62116 23.0301 8.41127C23.0814 8.58823 23.0968 8.77366 23.0756 8.95667C23.0543 9.13969 22.9967 9.31662 22.9061 9.47709C22.8156 9.63756 22.6939 9.77835 22.5483 9.8912C22.4027 10.0041 22.236 10.0867 22.058 10.1343C21.88 10.1819 21.6943 10.1935 21.5117 10.1685C21.3292 10.1434 21.1535 10.0821 20.9949 9.98828C20.8364 9.89443 20.6981 9.76988 20.5883 9.62193C20.4785 9.47398 20.3993 9.3056 20.3554 9.12666C20.0116 7.80804 19.3223 6.60495 18.3587 5.64136C17.3951 4.67776 16.192 3.98852 14.8734 3.64465C14.5188 3.54971 14.2163 3.31782 14.0326 2.99996C13.8489 2.6821 13.799 2.3043 13.8938 1.94962ZM23.9832 17.9514C23.7632 19.6264 22.9409 21.164 21.6701 22.2771C20.3992 23.3902 18.7667 24.0026 17.0773 24C7.66055 24 8.35872e-06 16.3395 8.35872e-06 6.92278C-0.0026096 5.23341 0.609813 3.60084 1.7229 2.33C2.83598 1.05915 4.3736 0.236931 6.04859 0.0168962C6.54212 -0.0430744 7.04184 0.0575326 7.47372 0.303811C7.90559 0.55009 8.24664 0.928939 8.44634 1.38423L10.8822 6.82239C10.8847 6.82952 10.8878 6.83646 10.8914 6.84316C11.0411 7.19304 11.1019 7.5745 11.0685 7.95359C11.0351 8.33267 10.9084 8.6976 10.6998 9.01589C10.6702 9.06227 10.6374 9.1066 10.6018 9.14859L8.40249 11.769C9.21712 13.2506 10.7679 14.7875 12.2668 15.601L14.8411 13.4087C14.8824 13.3741 14.9255 13.3417 14.9703 13.3117C15.2897 13.0974 15.6578 12.9667 16.0409 12.9316C16.4239 12.8966 16.8097 12.9582 17.1627 13.111L17.1834 13.1202L22.6159 15.5537C23.071 15.7535 23.4498 16.0946 23.696 16.5265C23.9423 16.9583 24.043 17.4579 23.9832 17.9514ZM21.1781 17.9445L16.3319 15.7741L13.7438 17.9745C13.7031 18.0097 13.6603 18.0425 13.6157 18.0726C13.283 18.2932 12.8988 18.4237 12.5005 18.4514C12.1023 18.4791 11.7037 18.4031 11.3437 18.2307C9.09597 17.146 6.8563 14.9214 5.76936 12.6921C5.59651 12.3337 5.51927 11.9367 5.54515 11.5396C5.57103 11.1425 5.69914 10.7589 5.91705 10.4259C5.94714 10.3795 5.98029 10.3352 6.01629 10.2932L8.2271 7.67164L6.05552 2.82541C5.12251 3.03101 4.28786 3.54949 3.69011 4.29479C3.09236 5.04009 2.76744 5.96739 2.7693 6.92278C2.77388 10.7161 4.28279 14.3527 6.96507 17.035C9.64734 19.7172 13.284 21.2261 17.0773 21.2307C18.0333 21.2334 18.9614 20.9088 19.7074 20.311C20.4534 19.7132 20.9724 18.8781 21.1781 17.9445ZM13.573 8.01549C14.1392 8.19397 14.6541 8.50636 15.0739 8.92617C15.4937 9.34598 15.8061 9.86083 15.9846 10.4271C16.0729 10.708 16.2485 10.9535 16.4859 11.1278C16.7233 11.3021 17.0101 11.3961 17.3046 11.3963C17.4458 11.3961 17.5863 11.3748 17.7211 11.3329C18.07 11.2225 18.3611 10.9784 18.5306 10.6541C18.7001 10.3298 18.7343 9.95154 18.6258 9.60206C18.3135 8.61063 17.7667 7.70916 17.0317 6.97416C16.2967 6.23916 15.3952 5.69233 14.4038 5.38006C14.2293 5.32151 14.0449 5.29834 13.8613 5.31189C13.6778 5.32544 13.4988 5.37545 13.3348 5.45899C13.1708 5.54253 13.0251 5.65793 12.9062 5.79843C12.7873 5.93894 12.6977 6.10174 12.6424 6.2773C12.5872 6.45287 12.5675 6.63768 12.5846 6.82094C12.6016 7.0042 12.655 7.18222 12.7417 7.3446C12.8283 7.50698 12.9464 7.65045 13.0892 7.76663C13.2319 7.88282 13.3964 7.96938 13.573 8.02126V8.01549Z" fill="#313531"/>
</svg>
