<svg width="24" height="24" viewBox="0 0 24 24" fill="none" xmlns="http://www.w3.org/2000/svg">
<path d="M6.615 21C6.155 21 5.771 20.846 5.463 20.538C5.15433 20.2293 5 19.845 5 19.385V8.615C5 8.155 5.15433 7.771 5.463 7.463C5.771 7.15433 6.155 7 6.615 7H8.5V6.5C8.5 5.528 8.84033 4.70167 9.521 4.021C10.2017 3.34033 11.028 3 12 3C12.972 3 13.7983 3.34033 14.479 4.021C15.1597 4.70167 15.5 5.528 15.5 6.5V7H17.385C17.845 7 18.229 7.15433 18.537 7.463C18.8457 7.771 19 8.155 19 8.615V19.385C19 19.845 18.846 20.229 18.538 20.537C18.2293 20.8457 17.845 21 17.385 21H6.615ZM6.615 20H17.385C17.5383 20 17.6793 19.936 17.808 19.808C17.936 19.6793 18 19.5383 18 19.385V8.615C18 8.46167 17.936 8.32067 17.808 8.192C17.6793 8.064 17.5383 8 17.385 8H15.5V10.5C15.5 10.642 15.4523 10.761 15.357 10.857C15.261 10.9523 15.142 11 15 11C14.858 11 14.739 10.9523 14.643 10.857C14.5477 10.761 14.5 10.642 14.5 10.5V8H9.5V10.5C9.5 10.642 9.45233 10.761 9.357 10.857C9.261 10.9523 9.142 11 9 11C8.858 11 8.739 10.9523 8.643 10.857C8.54767 10.761 8.5 10.642 8.5 10.5V8H6.615C6.46167 8 6.32067 8.064 6.192 8.192C6.064 8.32067 6 8.46167 6 8.615V19.385C6 19.5383 6.064 19.6793 6.192 19.808C6.32067 19.936 6.46167 20 6.615 20ZM9.5 7H14.5V6.5C14.5 5.796 14.2593 5.20333 13.778 4.722C13.2967 4.24067 12.704 4 12 4C11.296 4 10.7033 4.24067 10.222 4.722C9.74067 5.20333 9.5 5.796 9.5 6.5V7Z" fill="#1A1C1A"/>
</svg>
