<svg width="24" height="21" viewBox="0 0 24 21" fill="none" xmlns="http://www.w3.org/2000/svg">
<path d="M23.7497 9.08818L15.1781 0.25895C15.0583 0.135397 14.9056 0.0512179 14.7393 0.0170574C14.5731 -0.017103 14.4007 0.000290076 14.244 0.0670368C14.0874 0.133784 13.9534 0.246886 13.8592 0.39204C13.7649 0.537195 13.7146 0.707881 13.7145 0.882514V5.33575C10.9351 5.58077 7.86544 6.98241 5.34004 9.18861C2.29926 11.8462 0.406014 15.2708 0.00850646 18.8312C-0.0225573 19.108 0.03193 19.3879 0.164214 19.6309C0.296497 19.874 0.499837 20.0679 0.745296 20.185C0.990754 20.3021 1.26582 20.3365 1.53136 20.2833C1.79689 20.2301 2.03936 20.0919 2.22426 19.8885C3.40286 18.5961 7.59651 14.5093 13.7145 14.1495V18.541C13.7146 18.7156 13.7649 18.8863 13.8592 19.0314C13.9534 19.1766 14.0874 19.2897 14.244 19.3564C14.4007 19.4232 14.5731 19.4406 14.7393 19.4064C14.9056 19.3723 15.0583 19.2881 15.1781 19.1645L23.7497 10.3353C23.91 10.1698 24 9.94554 24 9.71174C24 9.47795 23.91 9.25369 23.7497 9.08818ZM15.4288 16.4098V13.2434C15.4288 13.0093 15.3385 12.7847 15.1777 12.6191C15.017 12.4535 14.799 12.3605 14.5716 12.3605C11.563 12.3605 8.6326 13.1695 5.86183 14.7665C4.45068 15.5834 3.13586 16.5656 1.94354 17.6934C2.56498 15.0623 4.13144 12.5603 6.44899 10.5351C8.93689 8.36197 11.9734 7.06297 14.5716 7.06297C14.799 7.06297 15.017 6.96995 15.1777 6.80437C15.3385 6.63879 15.4288 6.41422 15.4288 6.18005V3.01477L21.9314 9.71174L15.4288 16.4098Z" fill="#9C9C9C"/>
</svg>
