<svg width="24" height="24" viewBox="0 0 24 24" fill="none" xmlns="http://www.w3.org/2000/svg">
<path d="M12.0164 20C11.4671 20 10.9967 19.804 10.6053 19.412C10.2138 19.02 10.0184 18.5493 10.019 18C10.019 17.45 10.2148 16.979 10.6063 16.587C10.9977 16.195 11.4678 15.9993 12.0164 16C12.5656 16 13.036 16.196 13.4275 16.588C13.8189 16.98 14.0143 17.4507 14.0137 18C14.0137 18.55 13.8179 19.021 13.4265 19.413C13.035 19.805 12.565 20.0007 12.0164 20ZM12.0164 14C11.4671 14 10.9967 13.804 10.6053 13.412C10.2138 13.02 10.0184 12.5493 10.019 12C10.019 11.45 10.2148 10.979 10.6063 10.587C10.9977 10.195 11.4678 9.99934 12.0164 10C12.5656 10 13.036 10.196 13.4275 10.588C13.8189 10.98 14.0143 11.4507 14.0137 12C14.0137 12.55 13.8179 13.021 13.4265 13.413C13.035 13.805 12.565 14.0007 12.0164 14ZM12.0164 8C11.4671 8 10.9967 7.804 10.6053 7.412C10.2138 7.02 10.0184 6.54934 10.019 6C10.019 5.45 10.2148 4.979 10.6063 4.587C10.9977 4.195 11.4678 3.99934 12.0164 4C12.5656 4 13.036 4.196 13.4275 4.588C13.8189 4.98 14.0143 5.45067 14.0137 6C14.0137 6.55 13.8179 7.021 13.4265 7.413C13.035 7.805 12.565 8.00067 12.0164 8Z" fill="black"/>
</svg>
