<svg width="27" height="25" viewBox="0 0 27 25" fill="none" xmlns="http://www.w3.org/2000/svg">
<path d="M26 1.00273C26 1.00273 16.832 0.599149 9.608 9.59802C4.064 16.5026 2 22.8182 2 22.8182L4.328 21.7274C6.056 19.0005 6.956 17.877 8.648 16.2735C11.684 17.0807 14.852 16.9826 17.6 14.092C15.2 13.4812 13.28 13.623 10.448 13.8848C13.628 11.9105 15.8 11.4741 18.8 11.9105L20 9.72891C17.84 9.35805 16.4 9.32533 14.264 9.77254C16.628 8.25637 18.272 7.40557 21.2 7.54737L22.652 5.44218C20.78 5.32219 19.652 5.50762 17.504 5.98756C19.436 4.39504 21.2 3.67513 23.768 3.53333C23.768 3.53333 25.028 1.47177 26 1.00273Z" stroke="#279600" stroke-width="1.5"/>
</svg>
