<svg width="24" height="24" viewBox="0 0 24 24" fill="none" xmlns="http://www.w3.org/2000/svg">
<path d="M19 18C19 18 20 18 20 17C20 16 19 13 15 13C11 13 10 16 10 17C10 18 11 18 11 18H19ZM11.022 17C11.0146 16.999 11.0073 16.9976 11 16.996C11.001 16.732 11.167 15.966 11.76 15.276C12.312 14.629 13.282 14 15 14C16.717 14 17.687 14.63 18.24 15.276C18.833 15.966 18.998 16.733 19 16.996L18.992 16.998C18.9874 16.9988 18.9827 16.9995 18.978 17H11.022ZM15 11C15.5304 11 16.0391 10.7893 16.4142 10.4142C16.7893 10.0391 17 9.53043 17 9C17 8.46957 16.7893 7.96086 16.4142 7.58579C16.0391 7.21071 15.5304 7 15 7C14.4696 7 13.9609 7.21071 13.5858 7.58579C13.2107 7.96086 13 8.46957 13 9C13 9.53043 13.2107 10.0391 13.5858 10.4142C13.9609 10.7893 14.4696 11 15 11ZM18 9C18 9.39397 17.9224 9.78407 17.7716 10.1481C17.6209 10.512 17.3999 10.8427 17.1213 11.1213C16.8427 11.3999 16.512 11.6209 16.1481 11.7716C15.7841 11.9224 15.394 12 15 12C14.606 12 14.2159 11.9224 13.8519 11.7716C13.488 11.6209 13.1573 11.3999 12.8787 11.1213C12.6001 10.8427 12.3791 10.512 12.2284 10.1481C12.0776 9.78407 12 9.39397 12 9C12 8.20435 12.3161 7.44129 12.8787 6.87868C13.4413 6.31607 14.2044 6 15 6C15.7956 6 16.5587 6.31607 17.1213 6.87868C17.6839 7.44129 18 8.20435 18 9ZM10.936 13.28C10.536 13.154 10.1236 13.0712 9.706 13.033C9.47133 13.0107 9.23573 12.9997 9 13C5 13 4 16 4 17C4 17.667 4.333 18 5 18H9.216C9.06776 17.6878 8.99382 17.3455 9 17C9 15.99 9.377 14.958 10.09 14.096C10.333 13.802 10.616 13.527 10.936 13.28ZM8.92 14C8.32815 14.8893 8.00844 15.9318 8 17H5C5 16.74 5.164 15.97 5.76 15.276C6.305 14.64 7.252 14.02 8.92 14.001V14ZM5.5 9.5C5.5 8.70435 5.81607 7.94129 6.37868 7.37868C6.94129 6.81607 7.70435 6.5 8.5 6.5C9.29565 6.5 10.0587 6.81607 10.6213 7.37868C11.1839 7.94129 11.5 8.70435 11.5 9.5C11.5 10.2956 11.1839 11.0587 10.6213 11.6213C10.0587 12.1839 9.29565 12.5 8.5 12.5C7.70435 12.5 6.94129 12.1839 6.37868 11.6213C5.81607 11.0587 5.5 10.2956 5.5 9.5ZM8.5 7.5C7.96957 7.5 7.46086 7.71071 7.08579 8.08579C6.71071 8.46086 6.5 8.96957 6.5 9.5C6.5 10.0304 6.71071 10.5391 7.08579 10.9142C7.46086 11.2893 7.96957 11.5 8.5 11.5C9.03043 11.5 9.53914 11.2893 9.91421 10.9142C10.2893 10.5391 10.5 10.0304 10.5 9.5C10.5 8.96957 10.2893 8.46086 9.91421 8.08579C9.53914 7.71071 9.03043 7.5 8.5 7.5Z" fill="#1A1C1A"/>
</svg>
